<svg version="1.1" id="图层_1" xmlns="http://www.w3.org/2000/svg" x="0" y="0" viewBox="-7 1 40 40" style="enable-background:new -7 1 40 40" fill="#4461eb" xml:space="preserve"><style>.st0{opacity:.15}</style><path d="M7.3 39.5c-.1 0-.3 0-.4-.1l-9.7-4.6c-.3-.2-.6-.5-.6-.9V22.3c0-.3.2-.7.5-.8.3-.2.6-.2 1-.1l9.7 4.4c.4.2.6.5.6.9v11.8c0 .3-.2.7-.5.8-.2.2-.4.2-.6.2zm-8.7-6.2L6.3 37v-9.6l-7.7-3.5v9.4z"/><path class="st0" d="M-1.4 33.3 6.3 37v-9.6l-7.7-3.5zM27.4 23.8l-7.7 3.6v9.5l7.7-3.6z"/><path d="M18.7 39.5c-.2 0-.4-.1-.5-.2-.3-.2-.5-.5-.5-.8V26.7c0-.4.2-.7.6-.9l9.7-4.4c.3-.1.7-.1 1 .1.3.2.5.5.5.8v11.6c0 .4-.2.7-.6.9l-9.7 4.6c-.2.1-.4.1-.5.1zm1-12.1V37l7.7-3.7v-9.4l-7.7 3.5zM13 18.1c-.1 0-.3 0-.4-.1l-14.4-6.7c-.3-.2-.6-.5-.6-.9s.2-.7.5-.9l14.4-7.4c.3-.1.6-.1.9 0l14.4 7.4c.3.2.5.5.5.9s-.2.7-.6.9L13.4 18c-.1.1-.3.1-.4.1zM.9 10.4 13 16l12.1-5.6L13 4.1.9 10.4z"/><path d="M14.5 40h-3.1c-.6 0-1-.4-1-1V24.5l-13.2-6.2c-.4-.2-.6-.5-.6-.9V14c0-.3.2-.7.5-.8.3-.2.7-.2 1-.1L13 20.2l14.9-7.1c.3-.1.7-.1 1 .1.3.2.5.5.5.8v3.5c0 .4-.2.7-.6.9l-13.3 6.3V39c0 .6-.5 1-1 1zm-2.1-2h1.1V24c0-.4.2-.7.6-.9l13.3-6.3v-1.3l-13.9 6.6c-.3.1-.6.1-.9 0l-13.9-6.6v1.2L11.8 23c.4.2.6.5.6.9V38z"/></svg>