<svg version="1.1" id="图层_1" xmlns="http://www.w3.org/2000/svg" x="0" y="0" viewBox="0 0 60 60" style="enable-background:new 0 0 60 60" fill="#4461eb" xml:space="preserve"><style>.st0{fill:none;stroke:#4461eb;stroke-width:3;stroke-linecap:round;stroke-linejoin:round;stroke-miterlimit:10}</style><path class="st0" d="M52.3 57.7H7.1c-2.8 0-5-2.2-5-5V7.5c0-2.8 2.2-5 5-5h45.2c2.8 0 5 2.2 5 5v45.2c0 2.7-2.2 5-5 5z"/><path d="M52.3 57.7H16.5c-2.8 0-5-2.2-5-5V16.9c0-2.8 2.2-5 5-5h35.8c2.8 0 5 2.2 5 5v35.8c0 2.7-2.2 5-5 5z" style="opacity:.2"/><path class="st0" d="m8.8 41.9 4.7 4.1L9 50.6M18.5 49h11.9"/></svg>