<svg xmlns="http://www.w3.org/2000/svg" viewBox="-7 1 40 40" style="enable-background:new -7 1 40 40" fill="#4461eb" xml:space="preserve"><path d="M-1.3 11.2c-2.1.1-3.8 1.8-3.7 3.9.1 2 1.7 3.6 3.7 3.7 2.1-.1 3.7-1.9 3.6-4-.1-2-1.7-3.5-3.6-3.6zM.3 15c0 .9-.8 1.5-1.6 1.5h-.1c-.8 0-1.5-.7-1.5-1.5 0-.9.8-1.5 1.6-1.5h.1c.8 0 1.4.6 1.5 1.5zM13 33.5c-2.1 0-3.8 1.7-3.8 3.8 0 2.1 1.7 3.8 3.8 3.8 2.1 0 3.8-1.7 3.8-3.8 0-2.1-1.7-3.8-3.8-3.8zm1.6 3.8c0 .9-.8 1.5-1.6 1.5h-.1c-.8 0-1.5-.7-1.5-1.5 0-.9.8-1.5 1.6-1.5h.1c.8 0 1.5.7 1.5 1.5zM29.3 12.8c-.7-.7-1.7-1.1-2.7-1.1-2.1.1-3.7 1.8-3.6 3.9.1 2 1.7 3.6 3.7 3.7 1 0 2-.4 2.7-1.1 1.4-1.5 1.4-3.9-.1-5.4zm-1 2.7c0 .9-.8 1.5-1.6 1.5h-.1c-.8 0-1.5-.7-1.5-1.5 0-.9.8-1.5 1.6-1.5h.1c.7 0 1.4.7 1.5 1.5z"/><path d="M25.5 24.5c-1.2 0-2.5.4-3.4 1.2l-2.2-1.3c.5-1 .7-2.2.7-3.3 0-4-3-7.3-6.9-7.8v-1.4c2.7-.5 4.6-2.8 4.6-5.5 0-3.1-2.5-5.5-5.5-5.5-3.1 0-5.5 2.5-5.5 5.5 0 2.7 2 5 4.6 5.5v1.4C8 13.8 5 17.1 5 21.1c0 1.1.3 2.3.7 3.3l-1.9 1.1c-.9-.7-2.1-1-3.2-1-3.1 0-5.5 2.5-5.5 5.5 0 3.1 2.5 5.5 5.5 5.5S6 33.1 6 30.1c0-1.1-.3-2.2-.9-3.1l1.6-.9c1.5 1.8 3.7 2.9 6.1 2.9 2.3 0 4.6-1.1 6.1-2.9l1.9 1.1c-.5.8-.8 1.8-.8 2.9 0 3.1 2.5 5.5 5.5 5.5s5.5-2.5 5.5-5.5c.1-3.1-2.4-5.6-5.5-5.6zm3.5 5.6c0 1.9-1.6 3.5-3.5 3.5S22 32 22 30.1s1.6-3.5 3.5-3.5c2 0 3.5 1.5 3.5 3.5zM12.7 27c-1.5 0-3-.7-4.1-1.8C7.6 24.1 7 22.6 7 21c.1-3 2.6-5.5 5.6-5.6 3.2 0 5.8 2.6 5.8 5.8 0 1.5-.6 3-1.7 4.1-.9 1-2.4 1.7-4 1.7zm0-24.1c1.9 0 3.5 1.6 3.5 3.5s-1.6 3.5-3.5 3.5-3.5-1.6-3.5-3.5 1.6-3.5 3.5-3.5zM.5 26.6c1.9 0 3.5 1.6 3.5 3.5S2.4 33.6.5 33.6c-2 0-3.5-1.6-3.5-3.5 0-2 1.5-3.5 3.5-3.5z"/><path d="M29.1 30.1c0 2-1.6 3.6-3.6 3.6s-3.6-1.6-3.6-3.6 1.6-3.6 3.6-3.6 3.6 1.6 3.6 3.6zM9.1 6.4c0-2 1.6-3.6 3.6-3.6s3.6 1.6 3.6 3.6-1.6 3.6-3.6 3.6c-2 .1-3.6-1.6-3.6-3.6zm-5 23.7c0 2-1.6 3.6-3.6 3.6s-3.6-1.6-3.6-3.6 1.6-3.6 3.6-3.6 3.6 1.6 3.6 3.6z" style="opacity:.15"/></svg>