<svg version="1.1" id="图层_1" xmlns="http://www.w3.org/2000/svg" x="0" y="0" viewBox="0 0 60 60" style="enable-background:new 0 0 60 60" fill="#4461eb" xml:space="preserve"><style>.st0{fill:none;stroke:#4461eb;stroke-width:3;stroke-linecap:round;stroke-linejoin:round;stroke-miterlimit:10}.st1{opacity:.2}</style><circle class="st0" cx="11.8" cy="10.9" r="8"/><circle class="st0" cx="53.8" cy="26.2" r="4.4"/><circle class="st0" cx="8.3" cy="51.2" r="6.3"/><path class="st0" d="m19.8 10.9 29.3 16.4-34.2 22M47 36.5l-8.4 3.9v5.8c0 5.4 3.6 10.5 8.4 11.7 4.8-1.2 8.4-6.3 8.4-11.7v-5.8L47 36.5zm-.2 13.7"/><path d="m48.8 41.1-6.6 3.1v4.6c0 4.2 2.8 8.2 6.6 9.2 3.8-1 6.6-4.9 6.6-9.2v-4.6l-6.6-3.1zm-.2 10.7" class="st1"/><path class="st0" d="m51.6 45.1-4.9 4.8-1.1 1.1-1.1-1.1-2.1-2.1"/><circle class="st1" cx="55.1" cy="27.5" r="2.7"/><circle class="st1" cx="13.8" cy="12.1" r="6.2"/><circle class="st1" cx="10.6" cy="49.7" r="4.6"/></svg>